<svg width="599" height="154" viewBox="0 0 599 154" fill="none" xmlns="http://www.w3.org/2000/svg">
<path d="M249.64 102.777C245.32 102.777 241.48 101.937 238.12 100.257C234.76 98.5768 231.91 96.4468 229.57 93.8668L232.27 90.9868C234.43 93.4468 237.01 95.3968 240.01 96.8368C243.01 98.2768 246.22 98.9968 249.64 98.9968C254.2 98.9968 257.8 97.8868 260.44 95.6668C263.08 93.4468 264.4 90.5968 264.4 87.1168C264.4 83.3968 263.35 80.7268 261.25 79.1068C259.21 77.4868 256.72 76.0168 253.78 74.6968L244.78 70.6468C242.2 69.5068 239.53 67.8568 236.77 65.6968C234.07 63.5368 232.72 60.2668 232.72 55.8868C232.72 51.6268 234.34 48.1468 237.58 45.4468C240.88 42.6868 245.02 41.3068 250 41.3068C253.54 41.3068 256.72 42.0268 259.54 43.4668C262.36 44.8468 264.67 46.4968 266.47 48.4168L264.13 51.1168C262.39 49.3168 260.32 47.8768 257.92 46.7968C255.58 45.6568 252.94 45.0868 250 45.0868C246.1 45.0868 242.92 46.0468 240.46 47.9668C238.06 49.8868 236.86 52.4668 236.86 55.7068C236.86 59.1268 238.03 61.6468 240.37 63.2668C242.71 64.8868 244.96 66.1768 247.12 67.1368L256.12 71.0968C259.42 72.5968 262.33 74.4568 264.85 76.6768C267.37 78.8968 268.63 82.2868 268.63 86.8468C268.63 91.4068 266.89 95.2168 263.41 98.2768C259.99 101.277 255.4 102.777 249.64 102.777ZM290.5 102.777C286.3 102.777 283.45 101.577 281.95 99.1768C280.45 96.7768 279.7 93.6268 279.7 89.7268V61.9168H272.95V58.8568L279.79 58.4968L280.33 45.9868H283.75V58.4968H296.26V61.9168H283.75V90.0868C283.75 92.8468 284.23 95.0668 285.19 96.7468C286.15 98.4268 288.1 99.2668 291.04 99.2668C292.72 99.2668 294.52 98.8168 296.44 97.9168L297.52 101.157C296.26 101.637 295 102.027 293.74 102.327C292.48 102.627 291.4 102.777 290.5 102.777ZM321.53 102.777C316.37 102.777 311.84 100.797 307.94 96.8368C304.1 92.8768 302.18 87.3268 302.18 80.1868C302.18 72.9268 304.1 67.3168 307.94 63.3568C311.84 59.3968 316.37 57.4168 321.53 57.4168C326.75 57.4168 331.28 59.3968 335.12 63.3568C339.02 67.3168 340.97 72.9268 340.97 80.1868C340.97 87.3268 339.02 92.8768 335.12 96.8368C331.28 100.797 326.75 102.777 321.53 102.777ZM321.53 99.2668C325.91 99.2668 329.54 97.5268 332.42 94.0468C335.36 90.5068 336.83 85.8868 336.83 80.1868C336.83 74.4868 335.36 69.8668 332.42 66.3268C329.54 62.7268 325.91 60.9268 321.53 60.9268C317.15 60.9268 313.52 62.7268 310.64 66.3268C307.76 69.8668 306.32 74.4868 306.32 80.1868C306.32 85.8868 307.76 90.5068 310.64 94.0468C313.52 97.5268 317.15 99.2668 321.53 99.2668ZM353.944 101.697V58.4968H357.364L357.724 66.5068H357.994C359.434 63.8668 361.174 61.7068 363.214 60.0268C365.314 58.2868 367.654 57.4168 370.234 57.4168C371.914 57.4168 373.354 57.7168 374.554 58.3168L373.654 61.9168C372.394 61.4368 371.074 61.1968 369.694 61.1968C367.774 61.1968 365.734 62.0368 363.574 63.7168C361.474 65.3968 359.584 68.2468 357.904 72.2668V101.697H353.944ZM398.01 102.777C392.49 102.777 387.78 100.797 383.88 96.8368C379.98 92.8168 378.03 87.2668 378.03 80.1868C378.03 73.1068 379.95 67.5568 383.79 63.5368C387.69 59.4568 392.04 57.4168 396.84 57.4168C401.94 57.4168 405.96 59.1568 408.9 62.6368C411.9 66.1168 413.4 71.0368 413.4 77.3968C413.4 77.9368 413.37 78.4768 413.31 79.0168C413.31 79.5568 413.28 80.0968 413.22 80.6368H382.08C382.14 86.0968 383.64 90.5968 386.58 94.1368C389.58 97.6168 393.51 99.3568 398.37 99.3568C400.71 99.3568 402.81 98.9968 404.67 98.2768C406.59 97.5568 408.36 96.6268 409.98 95.4868L411.6 98.5468C409.86 99.5668 407.94 100.527 405.84 101.427C403.74 102.327 401.13 102.777 398.01 102.777ZM382.08 77.3968H409.62C409.62 71.8768 408.45 67.7368 406.11 64.9768C403.83 62.2168 400.77 60.8368 396.93 60.8368C393.21 60.8368 389.91 62.3068 387.03 65.2468C384.15 68.1868 382.5 72.2368 382.08 77.3968ZM446.646 102.777C439.326 102.777 433.356 99.9868 428.736 94.4068C424.116 88.8268 421.806 81.3268 421.806 71.9068C421.806 62.4868 424.146 55.0468 428.826 49.5868C433.506 44.0668 439.596 41.3068 447.096 41.3068C450.576 41.3068 453.636 42.0268 456.276 43.4668C458.916 44.9068 461.016 46.5568 462.576 48.4168L460.146 51.2068C458.526 49.3468 456.636 47.8768 454.476 46.7968C452.316 45.6568 449.886 45.0868 447.186 45.0868C440.646 45.0868 435.486 47.5168 431.706 52.3768C427.986 57.1768 426.126 63.6868 426.126 71.9068C426.126 80.1268 427.956 86.6968 431.616 91.6168C435.336 96.5368 440.406 98.9968 446.826 98.9968C449.886 98.9968 452.616 98.3968 455.016 97.1968C457.416 95.9368 459.696 94.1068 461.856 91.7068L464.286 94.3168C462.006 96.9568 459.456 99.0268 456.636 100.527C453.816 102.027 450.486 102.777 446.646 102.777ZM476.386 101.697V42.3868H508.876V45.9868H480.526V68.3968H504.286V71.9968H480.526V98.0968H509.776V101.697H476.386ZM522.705 101.697V42.3868H526.845V98.0968H554.205V101.697H522.705ZM564.716 101.697V42.3868H568.856V98.0968H596.216V101.697H564.716Z" fill="#090808"/>
<g filter="url(#filter0_i_89_772)">
<path d="M192.971 70.365C257.702 62.1518 63.3857 218.205 108.4 121.288C153.414 24.3702 -71.5943 49.0104 23.8279 70.365C119.25 91.7195 74.1742 -47.9072 108.4 19.4422C142.625 86.7916 128.241 78.5782 192.971 70.365Z" fill="#090808"/>
</g>
<defs>
<filter id="filter0_i_89_772" x="0" y="0.923096" width="206.309" height="156.201" filterUnits="userSpaceOnUse" color-interpolation-filters="sRGB">
<feFlood flood-opacity="0" result="BackgroundImageFix"/>
<feBlend mode="normal" in="SourceGraphic" in2="BackgroundImageFix" result="shape"/>
<feColorMatrix in="SourceAlpha" type="matrix" values="0 0 0 0 0 0 0 0 0 0 0 0 0 0 0 0 0 0 127 0" result="hardAlpha"/>
<feOffset dy="4"/>
<feGaussianBlur stdDeviation="2"/>
<feComposite in2="hardAlpha" operator="arithmetic" k2="-1" k3="1"/>
<feColorMatrix type="matrix" values="0 0 0 0 0 0 0 0 0 0 0 0 0 0 0 0 0 0 0.25 0"/>
<feBlend mode="normal" in2="shape" result="effect1_innerShadow_89_772"/>
</filter>
</defs>
</svg>
